<?xml version="1.0" encoding="utf-8"?>
<svg width="600" height="400" viewBox="0 0 600 400" xmlns="http://www.w3.org/2000/svg">
  <rect width="600" height="400" fill="#f3f4f6"/>
  <rect x="20" y="20" width="560" height="360" rx="8" fill="#ffffff" stroke="#e5e7eb" stroke-width="2"/>
  <rect x="40" y="40" width="200" height="24" rx="4" fill="#e5e7eb"/>
  <rect x="40" y="72" width="160" height="16" rx="4" fill="#f3f4f6"/>
  <rect x="40" y="120" width="520" height="220" rx="4" fill="#f3f4f6"/>
  <rect x="125" y="140" width="219.22" height="16" rx="2" fill="#9333ea" opacity="0.6" style=""/>
  <rect x="155.669" y="212" width="214.682" height="16" rx="2" fill="#818cf8" opacity="0.6" style=""/>
  <rect x="146.693" y="235.784" width="306.689" height="16" rx="2" fill="#60a5fa" opacity="0.6" style=""/>
  <rect x="169.539" y="187.644" width="245.351" height="16" rx="2" fill="#818cf8" opacity="0.6" style=""/>
  <rect x="125" y="164" width="276.02" height="16" rx="2" fill="#60a5fa" opacity="0.6" style=""/>
  <rect x="103.662" y="260" width="245.351" height="16" rx="2" fill="#9333ea" opacity="0.6" style=""/>
  <rect x="149.268" y="284" width="276.02" height="16" rx="2" fill="#818cf8" opacity="0.6" style=""/>
  <ellipse style="stroke-width: 6.505; paint-order: stroke; stroke: rgb(229, 231, 235);" cx="314.997" cy="218.033" rx="64.905" ry="63.614" fill="transparent"/>
  <rect x="121.368" y="308.187" width="14.77" height="16.292" style="stroke-width: 2.602; stroke: rgb(229, 231, 235); transform-box: fill-box; transform-origin: 50% 50%;" rx="2.588" ry="2.588" transform="matrix(0.696702, -0.717361, 0.696999, 0.717667, 238.599557, -44.866954)" fill="#f3f4f6"/>
  <rect x="170.284" y="1872.78" width="20.722" height="99" style="stroke-width: 2.602; stroke: rgb(229, 231, 235); transform-origin: 180.643px 1922.28px;" rx="2.588" ry="2.588" transform="matrix(0.696702, -0.717361, 0.696999, 0.717667, 226.625106, -1609.812838)" fill="#f3f4f6"/>
  <rect x="40" y="360" width="520" height="20" rx="4" fill="#f3f4f6"/>
  <circle cx="60" cy="370" r="4" fill="#34d399"/>
  <rect x="80" y="366" width="80" height="8" rx="4" fill="#9ca3af"/>
</svg>