<?xml version="1.0" encoding="utf-8"?>
<svg xmlns="http://www.w3.org/2000/svg" width="375" zoomAndPan="magnify" viewBox="0 0 281.25 143.999998" height="192" preserveAspectRatio="xMidYMid meet" version="1.2">
  <defs>
    <clipPath id="0b058c2dce">
      <path d="M 139 0.191406 L 141 0.191406 L 141 143.808594 L 139 143.808594 Z M 139 0.191406 "/>
    </clipPath>
  </defs>
  <g id="d0b219a38e">
    <g clip-rule="nonzero" clip-path="url(#0b058c2dce)">
      <path style="fill:none;stroke-width:1;stroke-linecap:butt;stroke-linejoin:miter;stroke:#000000;stroke-opacity:1;stroke-miterlimit:4;" d="M -0.000118116 0.501596 L 192.000112 0.501596 " transform="matrix(0,-0.748005,0.748005,0,139.870897,143.808505)"/>
    </g>
    <g style="fill:#000000;fill-opacity:1;">
      <g transform="translate(21.566664, 84.622394)">
        <path style="stroke:none" d="M 15.578125 0.625 C 13.671875 0.625 11.882812 0.226562 10.21875 -0.5625 C 8.550781 -1.363281 7.085938 -2.488281 5.828125 -3.9375 C 4.578125 -5.382812 3.601562 -7.082031 2.90625 -9.03125 C 2.207031 -10.988281 1.859375 -13.125 1.859375 -15.4375 C 1.859375 -17.757812 2.207031 -19.890625 2.90625 -21.828125 C 3.601562 -23.773438 4.578125 -25.472656 5.828125 -26.921875 C 7.085938 -28.367188 8.550781 -29.488281 10.21875 -30.28125 C 11.882812 -31.082031 13.671875 -31.484375 15.578125 -31.484375 C 17.347656 -31.484375 18.835938 -31.28125 20.046875 -30.875 C 21.265625 -30.46875 22.238281 -29.941406 22.96875 -29.296875 C 23.707031 -28.648438 24.238281 -27.945312 24.5625 -27.1875 C 24.894531 -26.425781 25.0625 -25.695312 25.0625 -25 C 25.0625 -23.925781 24.847656 -22.957031 24.421875 -22.09375 C 24.003906 -21.226562 23.460938 -20.445312 22.796875 -19.75 C 22.140625 -19.050781 21.4375 -18.394531 20.6875 -17.78125 C 19.9375 -17.175781 19.234375 -16.597656 18.578125 -16.046875 C 17.921875 -15.492188 17.378906 -14.9375 16.953125 -14.375 C 16.535156 -13.820312 16.328125 -13.238281 16.328125 -12.625 C 16.328125 -12.144531 16.398438 -11.753906 16.546875 -11.453125 C 16.703125 -11.160156 16.9375 -10.878906 17.25 -10.609375 C 16.695312 -10.492188 16.21875 -10.578125 15.8125 -10.859375 C 15.414062 -11.148438 15.109375 -11.539062 14.890625 -12.03125 C 14.671875 -12.53125 14.5625 -13.015625 14.5625 -13.484375 C 14.5625 -14.390625 14.769531 -15.207031 15.1875 -15.9375 C 15.613281 -16.664062 16.15625 -17.335938 16.8125 -17.953125 C 17.476562 -18.578125 18.175781 -19.164062 18.90625 -19.71875 C 19.632812 -20.269531 20.328125 -20.828125 20.984375 -21.390625 C 21.640625 -21.960938 22.175781 -22.5625 22.59375 -23.1875 C 23.019531 -23.8125 23.234375 -24.5 23.234375 -25.25 C 23.234375 -27.070312 22.597656 -28.503906 21.328125 -29.546875 C 20.066406 -30.585938 18.148438 -31.109375 15.578125 -31.109375 C 13.972656 -31.109375 12.503906 -30.71875 11.171875 -29.9375 C 9.835938 -29.15625 8.679688 -28.054688 7.703125 -26.640625 C 6.722656 -25.234375 5.960938 -23.578125 5.421875 -21.671875 C 4.890625 -19.773438 4.625 -17.695312 4.625 -15.4375 C 4.625 -13.1875 4.910156 -11.101562 5.484375 -9.1875 C 6.066406 -7.28125 6.859375 -5.617188 7.859375 -4.203125 C 8.867188 -2.796875 10.035156 -1.703125 11.359375 -0.921875 C 12.691406 -0.140625 14.097656 0.25 15.578125 0.25 C 16.960938 0.25 18.144531 0.078125 19.125 -0.265625 C 20.113281 -0.617188 20.945312 -1.050781 21.625 -1.5625 C 22.3125 -2.082031 22.851562 -2.597656 23.25 -3.109375 C 23.65625 -3.628906 23.941406 -4.0625 24.109375 -4.40625 C 24.285156 -4.757812 24.375 -4.9375 24.375 -4.9375 L 24.71875 -4.9375 L 24.71875 -0.796875 C 23.476562 -0.410156 22.140625 -0.078125 20.703125 0.203125 C 19.265625 0.484375 17.554688 0.625 15.578125 0.625 Z M 15.578125 0.625 "/>
      </g>
    </g>
    <g style="fill:#000000;fill-opacity:1;">
      <g transform="translate(56.279343, 84.622394)">
        <path style="stroke:none" d="M 15.578125 0.625 C 13.671875 0.625 11.882812 0.226562 10.21875 -0.5625 C 8.550781 -1.363281 7.085938 -2.488281 5.828125 -3.9375 C 4.578125 -5.382812 3.601562 -7.082031 2.90625 -9.03125 C 2.207031 -10.988281 1.859375 -13.125 1.859375 -15.4375 C 1.859375 -17.757812 2.207031 -19.890625 2.90625 -21.828125 C 3.601562 -23.773438 4.578125 -25.472656 5.828125 -26.921875 C 7.085938 -28.367188 8.550781 -29.488281 10.21875 -30.28125 C 11.882812 -31.082031 13.671875 -31.484375 15.578125 -31.484375 C 17.492188 -31.484375 19.285156 -31.082031 20.953125 -30.28125 C 22.617188 -29.488281 24.078125 -28.367188 25.328125 -26.921875 C 26.585938 -25.472656 27.566406 -23.773438 28.265625 -21.828125 C 28.960938 -19.890625 29.3125 -17.757812 29.3125 -15.4375 C 29.3125 -13.125 28.960938 -10.988281 28.265625 -9.03125 C 27.566406 -7.082031 26.585938 -5.382812 25.328125 -3.9375 C 24.078125 -2.488281 22.617188 -1.363281 20.953125 -0.5625 C 19.285156 0.226562 17.492188 0.625 15.578125 0.625 Z M 15.578125 -31.109375 C 13.972656 -31.109375 12.503906 -30.71875 11.171875 -29.9375 C 9.835938 -29.15625 8.679688 -28.054688 7.703125 -26.640625 C 6.722656 -25.234375 5.960938 -23.578125 5.421875 -21.671875 C 4.890625 -19.773438 4.625 -17.695312 4.625 -15.4375 C 4.625 -13.1875 4.910156 -11.101562 5.484375 -9.1875 C 6.066406 -7.28125 6.859375 -5.617188 7.859375 -4.203125 C 8.867188 -2.796875 10.035156 -1.703125 11.359375 -0.921875 C 12.691406 -0.140625 14.097656 0.25 15.578125 0.25 C 17.066406 0.25 18.472656 -0.140625 19.796875 -0.921875 C 21.117188 -1.703125 22.285156 -2.796875 23.296875 -4.203125 C 24.304688 -5.617188 25.097656 -7.28125 25.671875 -9.1875 C 26.253906 -11.101562 26.546875 -13.1875 26.546875 -15.4375 C 26.546875 -17.695312 26.273438 -19.773438 25.734375 -21.671875 C 25.203125 -23.578125 24.445312 -25.234375 23.46875 -26.640625 C 22.488281 -28.054688 21.328125 -29.15625 19.984375 -29.9375 C 18.648438 -30.71875 17.179688 -31.109375 15.578125 -31.109375 Z M 15.578125 -31.109375 "/>
      </g>
    </g>
    <g style="fill:#000000;fill-opacity:1;">
      <g transform="translate(96.484251, 84.622394)">
        <path style="stroke:none" d="M 0.921875 -30.859375 L 6.328125 -30.859375 L 23.609375 -4.5 L 23.609375 -17.953125 C 23.609375 -20.960938 23.359375 -23.382812 22.859375 -25.21875 C 22.367188 -27.0625 21.726562 -28.410156 20.9375 -29.265625 C 20.144531 -30.117188 19.304688 -30.546875 18.421875 -30.546875 L 18.421875 -30.859375 L 26.75 -30.859375 L 26.75 -30.546875 C 25.863281 -30.546875 25.21875 -30.28125 24.8125 -29.75 C 24.414062 -29.21875 24.164062 -28.347656 24.0625 -27.140625 C 23.96875 -25.929688 23.921875 -24.3125 23.921875 -22.28125 L 23.921875 0.625 L 23.609375 0.625 L 4.078125 -29.125 L 4.078125 -12.90625 C 4.078125 -9.914062 4.320312 -7.492188 4.8125 -5.640625 C 5.3125 -3.796875 5.957031 -2.445312 6.75 -1.59375 C 7.539062 -0.738281 8.378906 -0.3125 9.265625 -0.3125 L 9.265625 0 L 0.921875 0 L 0.921875 -0.3125 C 1.804688 -0.3125 2.445312 -0.578125 2.84375 -1.109375 C 3.25 -1.640625 3.503906 -2.515625 3.609375 -3.734375 C 3.710938 -4.953125 3.765625 -6.566406 3.765625 -8.578125 L 3.765625 -22.28125 C 3.765625 -24.3125 3.710938 -25.929688 3.609375 -27.140625 C 3.503906 -28.347656 3.25 -29.21875 2.84375 -29.75 C 2.445312 -30.28125 1.804688 -30.546875 0.921875 -30.546875 Z M 0.921875 -30.859375 "/>
      </g>
    </g>
    <g style="fill:#000000;fill-opacity:1;">
      <g transform="translate(133.202515, 84.622394)">
        <path style="stroke:none" d="M 0.921875 -0.3125 C 1.804688 -0.3125 2.445312 -0.578125 2.84375 -1.109375 C 3.25 -1.640625 3.503906 -2.515625 3.609375 -3.734375 C 3.710938 -4.953125 3.765625 -6.566406 3.765625 -8.578125 L 3.765625 -22.28125 C 3.765625 -24.3125 3.710938 -25.929688 3.609375 -27.140625 C 3.503906 -28.347656 3.25 -29.21875 2.84375 -29.75 C 2.445312 -30.28125 1.804688 -30.546875 0.921875 -30.546875 L 0.921875 -30.859375 L 22.984375 -30.859375 L 22.984375 -26.6875 L 22.6875 -26.6875 L 22.6875 -26.8125 C 22.6875 -27.84375 21.710938 -28.722656 19.765625 -29.453125 C 17.816406 -30.179688 15.066406 -30.546875 11.515625 -30.546875 L 6.421875 -30.546875 L 6.421875 -16.875 C 6.609375 -17.289062 7.019531 -17.695312 7.65625 -18.09375 C 8.289062 -18.5 9.070312 -18.703125 10 -18.703125 C 10.757812 -18.703125 11.453125 -18.601562 12.078125 -18.40625 C 12.703125 -18.207031 13.296875 -17.984375 13.859375 -17.734375 C 14.429688 -17.492188 15.003906 -17.273438 15.578125 -17.078125 C 16.160156 -16.878906 16.789062 -16.78125 17.46875 -16.78125 C 18.0625 -16.78125 18.585938 -16.941406 19.046875 -17.265625 C 19.515625 -17.585938 19.75 -18.015625 19.75 -18.546875 L 20.0625 -18.546875 C 20.0625 -17.640625 19.703125 -16.847656 18.984375 -16.171875 C 18.273438 -15.492188 17.316406 -15.15625 16.109375 -15.15625 C 15.160156 -15.15625 14.335938 -15.289062 13.640625 -15.5625 C 12.941406 -15.84375 12.3125 -16.15625 11.75 -16.5 C 11.195312 -16.851562 10.664062 -17.171875 10.15625 -17.453125 C 9.65625 -17.734375 9.128906 -17.875 8.578125 -17.875 C 7.773438 -17.875 7.210938 -17.597656 6.890625 -17.046875 C 6.578125 -16.503906 6.421875 -15.875 6.421875 -15.15625 L 6.421875 -8.578125 C 6.421875 -6.566406 6.472656 -4.953125 6.578125 -3.734375 C 6.679688 -2.515625 6.929688 -1.640625 7.328125 -1.109375 C 7.734375 -0.578125 8.378906 -0.3125 9.265625 -0.3125 L 9.265625 0 L 0.921875 0 Z M 0.921875 -0.3125 "/>
      </g>
    </g>
    <g style="fill:#000000;fill-opacity:1;">
      <g transform="translate(166.156454, 84.622394)">
        <path style="stroke:none" d="M 0.921875 -30.546875 L 0.921875 -30.859375 L 23.015625 -30.859375 L 23.015625 -26.6875 L 22.71875 -26.6875 L 22.71875 -26.8125 C 22.71875 -27.84375 21.742188 -28.722656 19.796875 -29.453125 C 17.847656 -30.179688 15.097656 -30.546875 11.546875 -30.546875 L 6.421875 -30.546875 L 6.421875 -17.28125 C 6.890625 -17.726562 7.425781 -18.078125 8.03125 -18.328125 C 8.644531 -18.578125 9.300781 -18.703125 10 -18.703125 C 10.757812 -18.703125 11.453125 -18.601562 12.078125 -18.40625 C 12.703125 -18.207031 13.296875 -17.984375 13.859375 -17.734375 C 14.429688 -17.492188 15.003906 -17.273438 15.578125 -17.078125 C 16.160156 -16.878906 16.789062 -16.78125 17.46875 -16.78125 C 18.0625 -16.78125 18.585938 -16.941406 19.046875 -17.265625 C 19.515625 -17.585938 19.75 -18.015625 19.75 -18.546875 L 20.0625 -18.546875 C 20.0625 -17.640625 19.703125 -16.847656 18.984375 -16.171875 C 18.273438 -15.492188 17.316406 -15.15625 16.109375 -15.15625 C 15.160156 -15.15625 14.335938 -15.285156 13.640625 -15.546875 C 12.941406 -15.816406 12.3125 -16.125 11.75 -16.46875 C 11.195312 -16.820312 10.664062 -17.140625 10.15625 -17.421875 C 9.65625 -17.703125 9.128906 -17.851562 8.578125 -17.875 C 8.128906 -17.894531 7.71875 -17.800781 7.34375 -17.59375 C 6.976562 -17.382812 6.671875 -17.113281 6.421875 -16.78125 L 6.421875 -0.3125 L 10.375 -0.3125 C 10.863281 -0.3125 11.503906 -0.328125 12.296875 -0.359375 C 13.085938 -0.390625 13.945312 -0.453125 14.875 -0.546875 C 15.800781 -0.648438 16.722656 -0.8125 17.640625 -1.03125 C 18.554688 -1.25 19.398438 -1.53125 20.171875 -1.875 C 20.941406 -2.226562 21.554688 -2.664062 22.015625 -3.1875 C 22.484375 -3.71875 22.71875 -4.351562 22.71875 -5.09375 L 23.015625 -5.09375 L 23.015625 0 L 0.921875 0 L 0.921875 -0.3125 C 1.804688 -0.3125 2.445312 -0.578125 2.84375 -1.109375 C 3.25 -1.640625 3.503906 -2.515625 3.609375 -3.734375 C 3.710938 -4.953125 3.765625 -6.566406 3.765625 -8.578125 L 3.765625 -22.28125 C 3.765625 -24.3125 3.710938 -25.929688 3.609375 -27.140625 C 3.503906 -28.347656 3.25 -29.21875 2.84375 -29.75 C 2.445312 -30.28125 1.804688 -30.546875 0.921875 -30.546875 Z M 0.921875 -30.546875 "/>
      </g>
    </g>
    <g style="fill:#000000;fill-opacity:1;">
      <g transform="translate(199.141243, 84.622394)">
        <path style="stroke:none" d="M 1.859375 -23.453125 C 1.859375 -24.890625 2.28125 -26.210938 3.125 -27.421875 C 3.976562 -28.640625 5.226562 -29.617188 6.875 -30.359375 C 8.519531 -31.109375 10.53125 -31.484375 12.90625 -31.484375 C 14.789062 -31.484375 16.425781 -31.347656 17.8125 -31.078125 C 19.207031 -30.804688 20.5 -30.46875 21.6875 -30.0625 L 21.6875 -25.921875 L 21.390625 -25.921875 C 21.390625 -25.921875 21.304688 -26.09375 21.140625 -26.4375 C 20.972656 -26.789062 20.691406 -27.222656 20.296875 -27.734375 C 19.910156 -28.253906 19.394531 -28.769531 18.75 -29.28125 C 18.101562 -29.800781 17.296875 -30.234375 16.328125 -30.578125 C 15.359375 -30.929688 14.21875 -31.109375 12.90625 -31.109375 C 10.988281 -31.109375 9.363281 -30.765625 8.03125 -30.078125 C 6.707031 -29.398438 5.707031 -28.535156 5.03125 -27.484375 C 4.351562 -26.441406 4.015625 -25.34375 4.015625 -24.1875 C 4.015625 -23.144531 4.285156 -22.25 4.828125 -21.5 C 5.367188 -20.757812 6.109375 -20.125 7.046875 -19.59375 C 7.984375 -19.0625 9.023438 -18.585938 10.171875 -18.171875 C 11.328125 -17.765625 12.519531 -17.351562 13.75 -16.9375 C 14.988281 -16.53125 16.1875 -16.082031 17.34375 -15.59375 C 18.5 -15.113281 19.539062 -14.535156 20.46875 -13.859375 C 21.40625 -13.179688 22.144531 -12.363281 22.6875 -11.40625 C 23.238281 -10.445312 23.515625 -9.289062 23.515625 -7.9375 C 23.515625 -6.863281 23.242188 -5.816406 22.703125 -4.796875 C 22.171875 -3.773438 21.398438 -2.859375 20.390625 -2.046875 C 19.390625 -1.234375 18.175781 -0.582031 16.75 -0.09375 C 15.332031 0.382812 13.726562 0.625 11.9375 0.625 C 10.582031 0.625 9.285156 0.425781 8.046875 0.03125 C 6.816406 -0.363281 5.6875 -0.851562 4.65625 -1.4375 C 3.625 -2.019531 2.726562 -2.585938 1.96875 -3.140625 L 1.96875 -7.28125 L 2.28125 -7.28125 C 2.28125 -7.28125 2.4375 -7.03125 2.75 -6.53125 C 3.070312 -6.039062 3.546875 -5.429688 4.171875 -4.703125 C 4.804688 -3.972656 5.582031 -3.242188 6.5 -2.515625 C 7.414062 -1.785156 8.472656 -1.171875 9.671875 -0.671875 C 10.878906 -0.179688 12.210938 0.0625 13.671875 0.0625 C 14.804688 0.0625 15.859375 -0.117188 16.828125 -0.484375 C 17.804688 -0.859375 18.660156 -1.363281 19.390625 -2 C 20.117188 -2.644531 20.6875 -3.367188 21.09375 -4.171875 C 21.507812 -4.972656 21.71875 -5.804688 21.71875 -6.671875 C 21.71875 -7.816406 21.441406 -8.804688 20.890625 -9.640625 C 20.335938 -10.472656 19.585938 -11.1875 18.640625 -11.78125 C 17.691406 -12.382812 16.625 -12.921875 15.4375 -13.390625 C 14.257812 -13.867188 13.039062 -14.320312 11.78125 -14.75 C 10.53125 -15.1875 9.3125 -15.648438 8.125 -16.140625 C 6.945312 -16.628906 5.882812 -17.195312 4.9375 -17.84375 C 3.988281 -18.5 3.238281 -19.285156 2.6875 -20.203125 C 2.132812 -21.117188 1.859375 -22.203125 1.859375 -23.453125 Z M 1.859375 -23.453125 "/>
      </g>
    </g>
    <g style="fill:#000000;fill-opacity:1;">
      <g transform="translate(233.545354, 84.622394)">
        <path style="stroke:none" d="M 1.859375 -23.453125 C 1.859375 -24.890625 2.28125 -26.210938 3.125 -27.421875 C 3.976562 -28.640625 5.226562 -29.617188 6.875 -30.359375 C 8.519531 -31.109375 10.53125 -31.484375 12.90625 -31.484375 C 14.789062 -31.484375 16.425781 -31.347656 17.8125 -31.078125 C 19.207031 -30.804688 20.5 -30.46875 21.6875 -30.0625 L 21.6875 -25.921875 L 21.390625 -25.921875 C 21.390625 -25.921875 21.304688 -26.09375 21.140625 -26.4375 C 20.972656 -26.789062 20.691406 -27.222656 20.296875 -27.734375 C 19.910156 -28.253906 19.394531 -28.769531 18.75 -29.28125 C 18.101562 -29.800781 17.296875 -30.234375 16.328125 -30.578125 C 15.359375 -30.929688 14.21875 -31.109375 12.90625 -31.109375 C 10.988281 -31.109375 9.363281 -30.765625 8.03125 -30.078125 C 6.707031 -29.398438 5.707031 -28.535156 5.03125 -27.484375 C 4.351562 -26.441406 4.015625 -25.34375 4.015625 -24.1875 C 4.015625 -23.144531 4.285156 -22.25 4.828125 -21.5 C 5.367188 -20.757812 6.109375 -20.125 7.046875 -19.59375 C 7.984375 -19.0625 9.023438 -18.585938 10.171875 -18.171875 C 11.328125 -17.765625 12.519531 -17.351562 13.75 -16.9375 C 14.988281 -16.53125 16.1875 -16.082031 17.34375 -15.59375 C 18.5 -15.113281 19.539062 -14.535156 20.46875 -13.859375 C 21.40625 -13.179688 22.144531 -12.363281 22.6875 -11.40625 C 23.238281 -10.445312 23.515625 -9.289062 23.515625 -7.9375 C 23.515625 -6.863281 23.242188 -5.816406 22.703125 -4.796875 C 22.171875 -3.773438 21.398438 -2.859375 20.390625 -2.046875 C 19.390625 -1.234375 18.175781 -0.582031 16.75 -0.09375 C 15.332031 0.382812 13.726562 0.625 11.9375 0.625 C 10.582031 0.625 9.285156 0.425781 8.046875 0.03125 C 6.816406 -0.363281 5.6875 -0.851562 4.65625 -1.4375 C 3.625 -2.019531 2.726562 -2.585938 1.96875 -3.140625 L 1.96875 -7.28125 L 2.28125 -7.28125 C 2.28125 -7.28125 2.4375 -7.03125 2.75 -6.53125 C 3.070312 -6.039062 3.546875 -5.429688 4.171875 -4.703125 C 4.804688 -3.972656 5.582031 -3.242188 6.5 -2.515625 C 7.414062 -1.785156 8.472656 -1.171875 9.671875 -0.671875 C 10.878906 -0.179688 12.210938 0.0625 13.671875 0.0625 C 14.804688 0.0625 15.859375 -0.117188 16.828125 -0.484375 C 17.804688 -0.859375 18.660156 -1.363281 19.390625 -2 C 20.117188 -2.644531 20.6875 -3.367188 21.09375 -4.171875 C 21.507812 -4.972656 21.71875 -5.804688 21.71875 -6.671875 C 21.71875 -7.816406 21.441406 -8.804688 20.890625 -9.640625 C 20.335938 -10.472656 19.585938 -11.1875 18.640625 -11.78125 C 17.691406 -12.382812 16.625 -12.921875 15.4375 -13.390625 C 14.257812 -13.867188 13.039062 -14.320312 11.78125 -14.75 C 10.53125 -15.1875 9.3125 -15.648438 8.125 -16.140625 C 6.945312 -16.628906 5.882812 -17.195312 4.9375 -17.84375 C 3.988281 -18.5 3.238281 -19.285156 2.6875 -20.203125 C 2.132812 -21.117188 1.859375 -22.203125 1.859375 -23.453125 Z M 1.859375 -23.453125 "/>
      </g>
    </g>
    <g style="fill:#000000;fill-opacity:1;">
      <g transform="translate(105.811993, 75.366022)">
        <path style="stroke:none" d=""/>
      </g>
    </g>
    <rect x="10.389" y="66.232" width="262.335" height="10.591" style="fill: rgb(255, 255, 255);"/>
    <g>
      <g style="fill:#000000;fill-opacity:1;">
        <g transform="translate(98.656556, 75.366022)">
          <path style="stroke:none" d="M 2.59375 -7.375 L 2.59375 0 L 1.828125 0 L 1.828125 -6.703125 L 0.09375 -6.703125 L 0.09375 -7.375 Z M 2.59375 -7.375 "/>
        </g>
      </g>
      <g style="fill:#000000;fill-opacity:1;">
        <g transform="translate(111.926083, 75.366022)">
          <path style="stroke:none" d="M 1.984375 0.0625 C 1.566406 0.0625 1.175781 -0.0234375 0.8125 -0.203125 C 0.457031 -0.390625 0.171875 -0.648438 -0.046875 -0.984375 L 0.40625 -1.515625 C 0.8125 -0.910156 1.34375 -0.609375 2 -0.609375 C 2.914062 -0.609375 3.375 -1.148438 3.375 -2.234375 L 3.375 -6.703125 L 0.671875 -6.703125 L 0.671875 -7.375 L 4.140625 -7.375 L 4.140625 -2.265625 C 4.140625 -1.492188 3.957031 -0.910156 3.59375 -0.515625 C 3.226562 -0.128906 2.691406 0.0625 1.984375 0.0625 Z M 1.984375 0.0625 "/>
        </g>
      </g>
      <g style="fill:#000000;fill-opacity:1;">
        <g transform="translate(120.554144, 75.366022)">
          <path style="stroke:none" d="M 4.421875 0.0625 C 3.691406 0.0625 3.03125 -0.0976562 2.4375 -0.421875 C 1.84375 -0.753906 1.378906 -1.203125 1.046875 -1.765625 C 0.710938 -2.335938 0.546875 -2.976562 0.546875 -3.6875 C 0.546875 -4.394531 0.710938 -5.03125 1.046875 -5.59375 C 1.378906 -6.164062 1.84375 -6.613281 2.4375 -6.9375 C 3.03125 -7.269531 3.691406 -7.4375 4.421875 -7.4375 C 5.148438 -7.4375 5.804688 -7.273438 6.390625 -6.953125 C 6.984375 -6.628906 7.445312 -6.179688 7.78125 -5.609375 C 8.113281 -5.035156 8.28125 -4.394531 8.28125 -3.6875 C 8.28125 -2.976562 8.113281 -2.335938 7.78125 -1.765625 C 7.445312 -1.191406 6.984375 -0.742188 6.390625 -0.421875 C 5.804688 -0.0976562 5.148438 0.0625 4.421875 0.0625 Z M 4.421875 -0.625 C 5.003906 -0.625 5.53125 -0.753906 6 -1.015625 C 6.46875 -1.285156 6.835938 -1.65625 7.109375 -2.125 C 7.378906 -2.59375 7.515625 -3.113281 7.515625 -3.6875 C 7.515625 -4.257812 7.378906 -4.78125 7.109375 -5.25 C 6.835938 -5.71875 6.46875 -6.082031 6 -6.34375 C 5.53125 -6.601562 5.003906 -6.734375 4.421875 -6.734375 C 3.835938 -6.734375 3.304688 -6.601562 2.828125 -6.34375 C 2.359375 -6.082031 1.988281 -5.71875 1.71875 -5.25 C 1.445312 -4.78125 1.3125 -4.257812 1.3125 -3.6875 C 1.3125 -3.113281 1.445312 -2.59375 1.71875 -2.125 C 1.988281 -1.65625 2.359375 -1.285156 2.828125 -1.015625 C 3.304688 -0.753906 3.835938 -0.625 4.421875 -0.625 Z M 4.421875 -0.625 "/>
        </g>
      </g>
      <g style="fill:#000000;fill-opacity:1;">
        <g transform="translate(132.737547, 75.366022)">
          <path style="stroke:none" d="M 7.359375 -7.375 L 7.359375 0 L 6.59375 0 L 6.59375 -3.40625 L 1.984375 -3.40625 L 1.984375 0 L 1.203125 0 L 1.203125 -7.375 L 1.984375 -7.375 L 1.984375 -4.09375 L 6.59375 -4.09375 L 6.59375 -7.375 Z M 7.359375 -7.375 "/>
        </g>
      </g>
      <g style="fill:#000000;fill-opacity:1;">
        <g transform="translate(144.647467, 75.366022)">
          <path style="stroke:none" d="M 7.359375 -7.375 L 7.359375 0 L 6.71875 0 L 1.984375 -5.984375 L 1.984375 0 L 1.203125 0 L 1.203125 -7.375 L 1.84375 -7.375 L 6.59375 -1.390625 L 6.59375 -7.375 Z M 7.359375 -7.375 "/>
        </g>
      </g>
      <g style="fill:#000000;fill-opacity:1;">
        <g transform="translate(162.671478, 75.366022)">
          <path style="stroke:none" d="M 2.59375 -7.375 L 2.59375 0 L 1.828125 0 L 1.828125 -6.703125 L 0.09375 -6.703125 L 0.09375 -7.375 Z M 2.59375 -7.375 "/>
        </g>
      </g>
      <g style="fill:#000000;fill-opacity:1;">
        <g transform="translate(175.415063, 75.366022)">
          <path style="stroke:none" d="M 2.84375 -7.4375 C 3.820312 -7.4375 4.566406 -7.113281 5.078125 -6.46875 C 5.597656 -5.820312 5.859375 -4.914062 5.859375 -3.75 C 5.859375 -2.925781 5.71875 -2.226562 5.4375 -1.65625 C 5.15625 -1.09375 4.757812 -0.664062 4.25 -0.375 C 3.75 -0.0820312 3.164062 0.0625 2.5 0.0625 C 1.769531 0.0625 1.1875 -0.0703125 0.75 -0.34375 L 1.046875 -0.953125 C 1.398438 -0.710938 1.878906 -0.59375 2.484375 -0.59375 C 3.296875 -0.59375 3.929688 -0.847656 4.390625 -1.359375 C 4.859375 -1.878906 5.09375 -2.632812 5.09375 -3.625 C 5.09375 -3.800781 5.082031 -4 5.0625 -4.21875 C 4.882812 -3.820312 4.59375 -3.507812 4.1875 -3.28125 C 3.789062 -3.0625 3.332031 -2.953125 2.8125 -2.953125 C 2.320312 -2.953125 1.890625 -3.039062 1.515625 -3.21875 C 1.140625 -3.40625 0.847656 -3.664062 0.640625 -4 C 0.429688 -4.332031 0.328125 -4.722656 0.328125 -5.171875 C 0.328125 -5.617188 0.4375 -6.015625 0.65625 -6.359375 C 0.875 -6.703125 1.171875 -6.96875 1.546875 -7.15625 C 1.929688 -7.34375 2.363281 -7.4375 2.84375 -7.4375 Z M 2.921875 -3.609375 C 3.296875 -3.609375 3.625 -3.675781 3.90625 -3.8125 C 4.195312 -3.945312 4.421875 -4.140625 4.578125 -4.390625 C 4.742188 -4.640625 4.828125 -4.914062 4.828125 -5.21875 C 4.828125 -5.5 4.75 -5.753906 4.59375 -5.984375 C 4.445312 -6.222656 4.222656 -6.414062 3.921875 -6.5625 C 3.628906 -6.71875 3.28125 -6.796875 2.875 -6.796875 C 2.34375 -6.796875 1.910156 -6.648438 1.578125 -6.359375 C 1.242188 -6.066406 1.078125 -5.675781 1.078125 -5.1875 C 1.078125 -4.707031 1.242188 -4.320312 1.578125 -4.03125 C 1.910156 -3.75 2.359375 -3.609375 2.921875 -3.609375 Z M 2.921875 -3.609375 "/>
        </g>
      </g>
    </g>
    <g style="fill:#000000;fill-opacity:1;">
      <g transform="translate(156.557388, 75.366022)">
        <path style="stroke:none" d=""/>
      </g>
    </g>
    <g style="fill:#000000;fill-opacity:1;">
      <g transform="translate(169.826915, 75.366022)">
        <path style="stroke:none" d="M 1.109375 -4.4375 C 0.960938 -4.4375 0.832031 -4.488281 0.71875 -4.59375 C 0.613281 -4.707031 0.5625 -4.847656 0.5625 -5.015625 C 0.5625 -5.171875 0.613281 -5.300781 0.71875 -5.40625 C 0.832031 -5.519531 0.960938 -5.578125 1.109375 -5.578125 C 1.265625 -5.578125 1.398438 -5.519531 1.515625 -5.40625 C 1.628906 -5.300781 1.6875 -5.171875 1.6875 -5.015625 C 1.6875 -4.847656 1.628906 -4.707031 1.515625 -4.59375 C 1.398438 -4.488281 1.265625 -4.4375 1.109375 -4.4375 Z M 1.109375 0.046875 C 0.960938 0.046875 0.832031 -0.00390625 0.71875 -0.109375 C 0.613281 -0.222656 0.5625 -0.363281 0.5625 -0.53125 C 0.5625 -0.6875 0.613281 -0.816406 0.71875 -0.921875 C 0.832031 -1.035156 0.960938 -1.09375 1.109375 -1.09375 C 1.265625 -1.09375 1.398438 -1.035156 1.515625 -0.921875 C 1.628906 -0.816406 1.6875 -0.6875 1.6875 -0.53125 C 1.6875 -0.363281 1.628906 -0.222656 1.515625 -0.109375 C 1.398438 -0.00390625 1.265625 0.046875 1.109375 0.046875 Z M 1.109375 0.046875 "/>
      </g>
    </g>
  </g>
</svg>