<?xml version="1.0" encoding="utf-8"?>
<svg width="600" height="400" viewBox="0 0 600 400" xmlns="http://www.w3.org/2000/svg">
  <rect width="600" height="400" fill="#f3f4f6" x="0.459"/>
  <rect x="20" y="20" width="560" height="360" rx="8" fill="#ffffff" stroke="#e5e7eb" stroke-width="2"/>
  <rect x="40" y="40" width="520" height="40" rx="4" fill="#f9fafb"/>
  <circle cx="70" cy="60" r="12" fill="#a855f7"/>
  <rect x="100" y="50" width="120" height="20" rx="4" fill="#e5e7eb"/>
  <circle cx="500" cy="60" r="12" fill="#ef4444"/>
  <rect x="40" y="100" width="520" height="20" rx="4" fill="#f9fafb"/>
  <rect x="40" y="100" width="200" height="20" rx="4" fill="#a855f7" opacity="0.3"/>
  <circle cx="240" cy="110" r="8" fill="#a855f7"/>
  <rect x="40" y="140" width="520" height="220" rx="4" fill="#f9fafb"/>
  <g transform="matrix(1, 0, 0, 1, -276.549111, 23.42862)">
    <rect y="151.469" width="190.806" height="158.312" x="355.542" fill="#a855f7" rx="24.937" ry="24.937" opacity="0.3"/>
    <path d="M 373.923 198.956 L 373.923 286.893 C 373.923 289.936 376.63 292.402 379.968 292.402 L 476.454 292.402 C 481.839 292.402 484.536 286.467 480.728 282.997 L 384.242 195.06 C 380.434 191.589 373.923 194.047 373.923 198.956 Z" fill="white" style="stroke-width: 1;"/>
    <circle cx="430.187" cy="194.364" r="22.5" fill="#a855f7" style="stroke-width: 1;"/>
    <rect x="700.899" y="374.005" width="33" height="33" fill="#e5e7eb" style="stroke-width: 1; transform-box: fill-box; transform-origin: 50% 50%;" rx="2.251" ry="2.251" transform="matrix(0.707107, 0.707107, -0.707107, 0.707107, -237.157394, -140.449968)"/>
  </g>
  <rect x="384.538" y="174.375" width="120" height="24" rx="4" fill="#e5e7eb"/>
  <rect x="389.02" y="249.714" width="120" height="24" rx="4" fill="#e5e7eb"/>
  <rect x="347.104" y="211.585" width="120" height="24" rx="4" fill="#e5e7eb"/>
  <rect x="347.726" y="287.966" width="120" height="24" rx="4" fill="#e5e7eb" style="stroke-width: 1;"/>
</svg>