<?xml version="1.0" standalone="no"?>
<!DOCTYPE svg PUBLIC "-//W3C//DTD SVG 20010904//EN"
 "http://www.w3.org/TR/2001/REC-SVG-20010904/DTD/svg10.dtd">
<svg version="1.0" xmlns="http://www.w3.org/2000/svg"
 width="76.000000pt" height="89.000000pt" viewBox="0 0 76.000000 89.000000"
 preserveAspectRatio="xMidYMid meet">

<g transform="translate(0.000000,89.000000) scale(0.100000,-0.100000)"
fill="#000000" stroke="none">
<path d="M311 841 c-15 -15 -36 -21 -83 -23 -61 -3 -63 -4 -72 -35 -8 -26 -17
-34 -50 -42 -53 -14 -67 -23 -68 -47 -1 -10 22 -95 51 -189 43 -139 52 -177
46 -213 -3 -24 -2 -49 3 -55 5 -7 12 -24 16 -39 3 -15 14 -29 24 -32 10 -3 23
-19 29 -36 14 -37 35 -38 129 -6 l70 23 59 -18 c59 -19 105 -18 105 1 0 6 8
18 18 28 9 10 28 33 41 52 22 30 23 37 13 74 -10 38 -6 56 44 220 30 98 54
190 52 204 -2 21 -12 29 -59 44 -40 13 -59 26 -67 43 -10 23 -18 25 -71 25
-33 0 -62 4 -65 9 -3 5 -29 11 -58 13 -29 3 -61 9 -70 12 -10 5 -24 0 -37 -13z
m49 -11 c12 -8 9 -10 -13 -10 -16 0 -26 4 -22 10 8 12 16 12 35 0z m100 -22
c23 -53 171 -551 167 -562 -6 -14 -368 -131 -387 -124 -7 2 -53 132 -101 289
-67 215 -86 286 -76 292 11 8 360 123 380 126 4 1 12 -9 17 -21z m-228 -25
c-53 -16 -70 -14 -57 6 3 6 30 11 58 10 l52 -1 -53 -15z m366 -162 c1 -96 0
-173 -3 -170 -6 6 -105 327 -105 341 0 5 24 8 53 6 l52 -3 3 -174z m75 113
c35 -12 47 -21 47 -36 0 -15 -77 -278 -94 -323 -3 -5 -5 77 -5 183 -1 105 0
192 2 192 2 0 24 -7 50 -16z m-503 -487 c0 -5 -4 -5 -10 -2 -5 3 -10 14 -10
23 0 15 2 15 10 2 5 -8 10 -19 10 -23z m20 -60 c0 -5 -4 -5 -10 -2 -5 3 -10
14 -10 23 0 15 2 15 10 2 5 -8 10 -19 10 -23z m405 3 c-3 -5 -21 -10 -38 -9
-27 0 -29 2 -12 9 28 12 57 12 50 0z m-35 -40 c0 -19 -29 -22 -72 -7 l-43 15
58 1 c33 1 57 -3 57 -9z"/>
<path d="M385 710 c3 -5 8 -10 11 -10 2 0 4 5 4 10 0 6 -5 10 -11 10 -5 0 -7
-4 -4 -10z"/>
<path d="M320 689 c0 -5 5 -7 10 -4 6 3 10 8 10 11 0 2 -4 4 -10 4 -5 0 -10
-5 -10 -11z"/>
<path d="M250 671 c0 -5 3 -11 8 -13 4 -1 34 -34 67 -72 32 -38 61 -64 63 -57
5 14 -109 151 -125 151 -7 0 -13 -4 -13 -9z"/>
<path d="M186 652 c-3 -5 23 -43 57 -85 39 -48 63 -72 65 -62 2 8 -19 43 -47
76 -28 33 -51 65 -51 70 0 11 -17 12 -24 1z"/>
<path d="M368 460 c24 -10 29 -38 10 -59 -11 -11 -10 -13 3 -8 9 3 27 -1 39
-10 17 -12 21 -23 18 -49 -3 -26 -1 -31 9 -22 16 13 17 60 1 76 -7 7 -20 12
-29 12 -13 0 -17 8 -15 33 1 29 -2 32 -29 34 -27 2 -28 2 -7 -7z"/>
<path d="M304 453 c-7 -2 0 -35 19 -91 34 -99 35 -99 45 -86 11 12 -50 182
-64 177z"/>
</g>
</svg>
